/* XPM */
static char *_2_1_1700750538[] = {
/* columns rows colors chars-per-pixel */
"128 128 17 1 ",
"  c #1B9596",
". c #61B4B5",
"X c #E9F5F4",
"o c #BCE0E0",
"O c #F9FDFC",
"+ c #D7ECEC",
"@ c #7EC3C3",
"# c white",
"$ c #169394",
"% c #4DADAE",
"& c #33A1A2",
"* c #A7DADA",
"= c #95CFCE",
"- c #289D9D",
"; c #75BEBE",
": c #8CCBCB",
"> c #41A7A8",
/* pixels */
"                                                                                                                                ",
"                                                                                                                                ",
"                                                                                                                                ",
"                                                                                                                                ",
"                                                                                                                                ",
"                                                                                                                                ",
"                                                                                                                                ",
"                                                                                                                                ",
"                                                                                                                                ",
"                                                                                                                                ",
"                                                                                                                                ",
"                                                                                                                                ",
"                                                                                                                                ",
"                                                                                                                                ",
"                                                                                                                                ",
"                                                                                                                                ",
"                                                                                                                                ",
"                                                                                                                                ",
"                                                                                                                                ",
"                                                                                                                                ",
"                                                                                                                                ",
"                                                                                                                                ",
"                                                                                                                                ",
"                                                                                                                                ",
"                                                                                                                                ",
"                                                                                                                                ",
"                                                                                                                                ",
"                                                                                                                                ",
"                                            $$$$$$$$$$$$$$       $$$$$$$$$$$$$$$$$$$$$$$$$$$$$                                  ",
"                                          $&%%>%>%>%>%>%%%-     ->%>%>%>%>%>%%%>%>%>%>%>%>%>%%&                                 ",
"                                         $%+XXXXXXXXXXXXX*-    $.XXXXXXXXXXXXXo=XXXXXXXXXXXXXX;$                                ",
"                                         %+#############o&$    $.O###########+%;##############@$                                ",
"                                       $%+#############o&$     $.O##########+%$;##############@$                                ",
"                                       %+#############o&$      $.O#########+% $@##############@$                                ",
"                                     $%+#############o&        $.O########+%$  @##############@$                                ",
"                                     %+#############o&$        $.O#######+%$  $@##############@$                                ",
"                                   $%+#############o&$         $.O######+%$   $@##############@$                                ",
"                                  $%+#############o&$          $.O#####+%$    $@##############@$                                ",
"                                 $%+#############o&$           $.O####+%      $@##############@$                                ",
"                                 %+#############o&$            $.O###+%$      $@##############@$                                ",
"                               $%+#############o&$             $.O##+%$       $@##############@$                                ",
"                               %+#############o&$              $.O#+%$        $@##############@$                                ",
"                             $%+#############o&$               $.O+%$         $@##############@$                                ",
"                             %+#############o&$                 .+%$          $;##############@$                                ",
"                           $%+#############o&$                  >%$           $@##############;$                                ",
"                          $.+#############o&$                                 %+############Oo&                                 ",
"                         $%+#############o&$                                $.+#############o&$                                 ",
"                        $%+#############o&$                                $.X#############o&$                                  ",
"                       $%+#############o&$                                $.X#############o&$                                   ",
"                       %+#############o-$                                $.X############Oo&$                                    ",
"                     $%+#############o&$                                $.+#############o&$                                     ",
"                     %+#############o&$                                $.X#############o&$                                      ",
"                   $%+#############o&$                                $%X#############o&$                                       ",
"                   %+#############o&$                                $.X############Oo&$                                        ",
"                 $%+#############o&$                                $.X#############o&$                                         ",
"                 %+#############o&                                 $%X#############o&$                                          ",
"               $%+#############o&                                 $.X#############o&$                                           ",
"               %+#############o&$                                 %X#############o&$                                            ",
"             $%+#############o&$$$$$$$$$$$$$$$$$$$$$$$$$$$$     $%+#############o&$                                             ",
"            $>+#############X:;;;;;;;;;;;;;;;;;;;;;;;;;;;;>     >+#############o&$          $--                                 ",
"            $.O##########################################O@$   $.O#############=$            :;$                                ",
"            $.O########################O#####O#####O#####O@$   $.O#############*$           @O@$                                ",
"            $.O##########################################O@$   $.O#############=$          :O#@$                                ",
"            $.O##########################################O@$   $.O#############*$         @O##@$                                ",
"            $.O##########################################O@$   $.O#############=$        @O###@$                                ",
"            $.O##########################################O@$   $.O#############*$       @O####@$                                ",
"            $.O##########################################O@$   $.O#############=$      @O#####@$                                ",
"            $.O##########################################O@$   $.O#############*$     @O######@$                                ",
"            $.O##########################################O@$   $.O#############=$    @O#######@$                                ",
"            $.O##########################################O@$   $.O#############*$   @O########@$                                ",
"            $.O##########################################O@$   $.O#############=$  @O#########@$                                ",
"             >*****************************+#############O@$   $.O#############*$ @X##########@$                                ",
"              $$$$$$$$$$$$$$$$$$$$$$$$$$$$$:#############O@$   $.O#############=$@O###########@$                                ",
"                                          $=#############O@$   $.O#############*@O############@$                                ",
"                                           =#############O@$    >::::::::::::::;@:::::::::::::%$                                ",
"                                          $=#############O@$    $$$$$$$$$$$$$$$$$$$$$$$$$$$$$$                                  ",
"                                           :#############O@$                    $                                               ",
"                                          $=#############O@$                                                                    ",
"                                           =#############O@$                                                                    ",
"                                          $=#############O@$                                                                    ",
"                                           :#############O@$                                                                    ",
"                                          $=#############O@$                                                                    ",
"                                           =#############O@$                                                                    ",
"                                          $=#############O@$                                                                    ",
"                                           :#############O@$                                                                    ",
"                                          $=##############@$     $                                                              ",
"                                          $.==============%$    >;-                                                             ",
"                                            $$$$$$$$$$$$$      $.+-$                                                            ",
"                                                               $.+-    $$$   $$ $$ $$$$$ $$$   $$$ $$   $$$   $$                ",
"                                                                .+-    .=% $-::&@:->===:-%=.   .=&&:; $$>=.  $.=%$              ",
"                                                               $.+-   $.#= $;#*>++ @#X+o-=#+>$ oO>%OO;$$;#:$$&+#*               ",
"                                                                .+-    &X+ -+X%>Xo$=O.-- *##*- +X&.O#+>$:O;$$@OO+-              ",
"                                                               $.+-     oX>@#=$.O* *O*=. oXoO;-X+ @O+Oo-*O%$>++oX%$             ",
"                                                                .+-    $@O=+X>$.#: oOXX;-++%+X;Xo =O;*O@oX%$:O.;O@$             ",
"                                                               $.+-    $%XXO: $@#;-++>&-&Xo .OXO* *O>&+XO+&>XO*o#*              ",
"                                                                .+-     -o#+&$ *O.>X+..&>O*  =##=-oX&$.X#+-=O+ooX+&             ",
"                                                               $.+-      =O@$  oX>%XOOX..#= $&o#;-++-  :#o%X+& -*O.$            ",
"                                                                .+-     $&%-   >%--%%%%--%&   &%& %>  $ %>&%>$$ &%&             ",
"                                                               $.+-      $$    $$  $$$$  $$    $  $$  $ $$$$$   $$$             ",
"                                                                .+-                                                             ",
"                                                               $.+-                                                             ",
"                                                                &.                                                              ",
"                                                                 $                                                              ",
"                                                                                                                                ",
"                                                                                                                                ",
"                                                                                                                                ",
"                                                                                                                                ",
"                                                                                                                                ",
"                                                                                                                                ",
"                                                                                                                                ",
"                                                                                                                                ",
"                                                                                                                                ",
"                                                                                                                                ",
"                                                                                                                                ",
"                                                                                                                                ",
"                                                                                                                                ",
"                                                                                                                                ",
"                                                                                                                                ",
"                                                                                                                                ",
"                                                                                                                                ",
"                                                                                                                                ",
"                                                                                                                                ",
"                                                                                                                                ",
"                                                                                                                                ",
"                                                                                                                                ",
"                                                                                                                                ",
"                                                                                                                                ",
"                                                                                                                                "
};
