/* XPM */
static char *a93f31525d9c4e4fa9995a88c0a189afi7eMLdz8hkYvF4OS[] = {
/* columns rows colors chars-per-pixel */
"32 32 2 1 ",
"  c black",
". c white",
/* pixels */
"                                ",
"                                ",
"    .....................       ",
"    .....................       ",
"     ..                ..       ",
"     ..                ..       ",
"     ..                ..       ",
"     ..                         ",
"     ..                         ",
"     ..                         ",
"     ..                         ",
"     ..                         ",
"     ..                         ",
"     ..          ..             ",
"     ..          ..             ",
"     ..............             ",
"     ..............             ",
"     ..          ..             ",
"     ..          ..             ",
"     ..                         ",
"     ..                         ",
"     ..                         ",
"     ..                         ",
"     ..                         ",
"     ..                         ",
"     ..                ..       ",
"     ..                ..       ",
"     ..                ..       ",
"    .....................       ",
"    .....................       ",
"                                ",
"                                "
};
