/* XPM */
static char *_a795cd7c55c498e90f7031ac664627dYfOPyKDEz54TTJkr[] = {
/* columns rows colors chars-per-pixel */
"64 64 2 1 ",
"  c blue",
". c white",
/* pixels */
"                                                                ",
"                                                                ",
"                                                                ",
"                                                                ",
"                                                                ",
"                                                                ",
"                                                                ",
"                                                                ",
"            ....                        ............            ",
"            ....                        ............            ",
"            ......                        ........              ",
"            ......                        ........              ",
"            ........                      ........              ",
"            ........                      ........              ",
"            ..........                    ........              ",
"            ..........                    ........              ",
"            ............                  ........              ",
"            ............                  ........              ",
"            ..............                ........              ",
"            ..............                ........              ",
"            ................              ........              ",
"            ................              ........              ",
"            ..................            ........              ",
"            ..................            ........              ",
"            ....................          ........              ",
"            ....................          ........              ",
"            ......................        ........              ",
"            ......................        ........              ",
"            ........................      ........              ",
"            ........................      ........              ",
"            ..........................    ........              ",
"            ..........................    ........              ",
"            ......  ....................  ........              ",
"            ......  ....................  ........              ",
"            ......    ............................              ",
"            ......    ............................              ",
"            ......      ..........................              ",
"            ......      ..........................              ",
"            ......        ........................              ",
"            ......        ........................              ",
"            ......          ......................              ",
"            ......          ......................              ",
"            ......            ....................              ",
"            ......            ....................              ",
"            ......              ..................              ",
"            ......              ..................              ",
"            ......                ................              ",
"            ......                ................              ",
"            ......                  ..............              ",
"            ......                  ..............              ",
"            ......                    ............              ",
"            ......                    ............              ",
"            ......                      ..........              ",
"            ......                      ..........              ",
"            ......                        ........              ",
"            ......                        ........              ",
"          ..........                        ......              ",
"          ..........                        ......              ",
"                                                                ",
"                                                                ",
"                                                                ",
"                                                                ",
"                                                                ",
"                                                                "
};
