/* XPM */
static char *_27bbce612e04698c370f296c509de0aPDtAZe95IKl74D2K[] = {
/* columns rows colors chars-per-pixel */
"32 32 2 1 ",
"  c black",
". c white",
/* pixels */
"                                ",
"                                ",
"                                ",
"   ..................           ",
"   ....................         ",
"   .....................        ",
"   .......................      ",
"       ...         .......      ",
"       ...            .....     ",
"       ...            .....     ",
"       ...             ....     ",
"       ...             ....     ",
"       ...             ....     ",
"       ...             ....     ",
"       ...             ....     ",
"       ...            .....     ",
"       ...           .....      ",
"       ...................      ",
"       .................        ",
"       ................         ",
"       ..............           ",
"       ...                      ",
"       ...                      ",
"       ...                      ",
"       ...                      ",
"       ...                      ",
"       ...                      ",
"   ...........                  ",
"   ...........                  ",
"   ...........                  ",
"                                ",
"                                "
};
