/* XPM */
static char *fe1868b2eb8e40b29f9784c8eba236bc0LqmX33lmtJnygKe[] = {
/* columns rows colors chars-per-pixel */
"64 64 2 1 ",
"  c black",
". c white",
/* pixels */
"                                                                ",
"                                                                ",
"                                                                ",
"                                                                ",
"                                                                ",
"                                                                ",
"      ....................................                      ",
"      ....................................                      ",
"      ........................................                  ",
"      ........................................                  ",
"      ..........................................                ",
"      ..........................................                ",
"      ..............................................            ",
"      ..............................................            ",
"            ..........                ..............            ",
"            ..........                ..............            ",
"            ..........                    ............          ",
"            ..........                    ............          ",
"            ..........                      ..........          ",
"            ..........                      ..........          ",
"            ..........                      ..........          ",
"            ..........                      ..........          ",
"            ..........                      ..........          ",
"            ..........                      ..........          ",
"            ..........                      ..........          ",
"            ..........                      ..........          ",
"            ..........                      ..........          ",
"            ..........                      ..........          ",
"            ..........                      ..........          ",
"            ..........                      ..........          ",
"            ..........                    ............          ",
"            ..........                    ............          ",
"            ..........                  ............            ",
"            ..........                  ............            ",
"            ........................................            ",
"            ........................................            ",
"            ....................................                ",
"            ....................................                ",
"            ..................................                  ",
"            ..................................                  ",
"            ..............................                      ",
"            ..............................                      ",
"            ..........                                          ",
"            ..........                                          ",
"            ..........                                          ",
"            ..........                                          ",
"            ..........                                          ",
"            ..........                                          ",
"            ..........                                          ",
"            ..........                                          ",
"            ..........                                          ",
"            ..........                                          ",
"            ..........                                          ",
"            ..........                                          ",
"      ......................                                    ",
"      ......................                                    ",
"      ......................                                    ",
"      ......................                                    ",
"      ......................                                    ",
"      ......................                                    ",
"                                                                ",
"                                                                ",
"                                                                ",
"                                                                "
};
