/* XPM */
static char *_28d3ba016174b4eceb888dbee649045UHOIigCG0zyD5UFb[] = {
/* columns rows colors chars-per-pixel */
"64 64 2 1 ",
"  c red",
". c white",
/* pixels */
"                                                                ",
"                                                                ",
"                            ............                        ",
"                            ............                        ",
"                        ......................                  ",
"                        ......................                  ",
"                      ..........................                ",
"                      ..........................                ",
"                    ..............................              ",
"                    ..............................              ",
"                    ................................            ",
"                    ................................            ",
"                  ..............          ..........            ",
"                  ..............          ..........            ",
"                  ............            ..........            ",
"                  ............            ..........            ",
"                  ............            ..........            ",
"                  ............            ..........            ",
"                  ............              ......              ",
"                  ............              ......              ",
"                  ............                                  ",
"                  ............                                  ",
"                  ............                                  ",
"                  ............                                  ",
"                    ..........                                  ",
"                    ..........                                  ",
"                    ..............                              ",
"                    ..............                              ",
"                      ................                          ",
"                      ................                          ",
"                          ................                      ",
"                          ................                      ",
"                            ................                    ",
"                            ................                    ",
"                                ................                ",
"                                ................                ",
"                                  ..............                ",
"                                  ..............                ",
"                                      ............              ",
"                                      ............              ",
"                                      ............              ",
"                                      ............              ",
"                  ......                ............            ",
"                  ......                ............            ",
"                ........                  ..........            ",
"                ........                  ..........            ",
"                ..........                ..........            ",
"                ..........                ..........            ",
"                ..........                ..........            ",
"                ..........                ..........            ",
"                ..............          ............            ",
"                ..............          ............            ",
"                  ................................              ",
"                  ................................              ",
"                  ..............................                ",
"                  ..............................                ",
"                    ..........................                  ",
"                    ..........................                  ",
"                        ....................                    ",
"                        ....................                    ",
"                          ................                      ",
"                          ................                      ",
"                                                                ",
"                                                                "
};
