/* XPM */
static char *_f1687190e8e4ebeffdf28c758115b8fOWJXWOuRgbDrHeOD[] = {
/* columns rows colors chars-per-pixel */
"32 32 2 1 ",
"  c black",
". c white",
/* pixels */
"                                ",
"                                ",
"                                ",
"                                ",
"            ........            ",
"          ............          ",
"         ..............         ",
"        .....      .....        ",
"       ....          ....       ",
"       ...            ...       ",
"      ....          ......      ",
"      ...          .......      ",
"      ...          ... ...      ",
"      ...         ...  ...      ",
"      ...        ...   ...      ",
"      ...       ...    ...      ",
"      ...      ....    ...      ",
"      ...     ....     ...      ",
"      ...    ....      ...      ",
"      ...   ....       ...      ",
"      ...  ....        ...      ",
"      ...  ...         ...      ",
"       ......          ..       ",
"       .....          ...       ",
"        ...          ...        ",
"        ....        ....        ",
"         .....    .....         ",
"          ............          ",
"            ........            ",
"                                ",
"                                ",
"                                "
};
