/* XPM */
static char *_d3106d3e6944441ab2441cfcd9f68c8W2DDX9EasxE2c9hy[] = {
/* columns rows colors chars-per-pixel */
"64 64 22 1 ",
"  c #BDB09E",
". c #C1B3A1",
"X c #C2B4A2",
"o c #C4B7A4",
"O c #C6B9A6",
"+ c #C3B8AB",
"@ c #C7BAA8",
"# c #C6BBAE",
"$ c #C8BBA9",
"% c #CDBFAD",
"& c #C7BCB0",
"* c #C9BEB2",
"= c #CEC0AE",
"- c #CBC0B4",
"; c #CEC3B6",
": c #CFC4B7",
"> c #D0C2B0",
", c #D2C5B2",
"< c #D4C7B4",
"1 c #D0C5B8",
"2 c #D3C8BB",
"3 c #D5CABD",
/* pixels */
"3;;::;;;--1<:;-13;;::;;;--1<:;-,3:;::;;;;-:<:;-;31;:;;;;*;11:;*=",
";oOO@@OX.XO@XXXO;oOO@@OX.XO@XXXX;oOO@OOX..O@oXXX;OOO@OX..O@@O.X.",
"1$$%$$@OXXoOXXXO1$$%$$@OXXXOXXXo:$$$$%@OX.oOoXXX:%$$%@OX.oOOoXXX",
"1$$$@$@oX.XOOX.@1$$$@$@oX.XoOX.O1%$$$$@OoXXoOX.X:%$$$@OoX.ooOo.X",
":OOOOo@oX..OO..O:OOOOo@oX..OO..o:@OOOoOoX..oO..X:$OOoOOX..XXOX.X",
";XXXooXX...oO..O;XXXooXX...oOX.O;oXXoOXXX..XOX.X;OXoOXXX..XXOX.X",
";XXooOoO..XXX. X;XXooOoO..XXX. X;OXooooO..XXo. .;O.ooOo..XXXX. .",
"3*%%%*&$$@%*#OO*3*%%%*&$$#%%#OO$2*%%%%%$#@%%#OO@2*%%**#&O%%%#O+O",
";;-;*-;:3;:;****;;-;*-;:3;:;**&*;;-;*-;;3::;****;;-*-;-31:::***&",
"oOOOOO@$:O%OXX..oOOOOO@$:O%@XX..oOOOoO$O:@%@XX..XOOOO$O:%$$$XX..",
"XOO@OO@$1O$Ooo..XOO@OO@$1O@@oo..XOO$OO@O:$@@oo..XOOOO@O:%@$$ooX.",
"X@OOXXo$;OOoXoX.X@OOXXo$;OOOooX.X@@OXXOO;@OOoXX.XO@XXoo;$OOOoXX.",
"oOOooOo$1O$@oXXXoOOooOo$1O$OOXXXXOOooooO1$$@OXXXXOOoooo1%$@@OXXX",
"OOoXoOO$1O$@oXXoOOoXoOO$1O$@OXXooOoXoOO@1$$@OXXXoOoooOO:%$$$OX.o",
"ooXoXooO;OoX.XXXooXoXooO;OOX..XXXoXoXooo;OoX..XXXoXXoOX;$OXX..XX",
"@$%%$$$%1@$OOOOO@$%%$$$%1@$OOO@O@$$%$$$$1$$@OOOO@@$$$$@1%$@@oOOO",
"3:;:1;;;;;11:;;13:;:1;;;;-11:;;131;;1;;;;-111;;;31;:;;;;-1111;;;",
";oOOOOOX.XO@X.XO;oOOOOOX..O@XX.X;oOOOOOX..O@o...;OOOOOX..O$$o...",
"1$$$$%@OXXoOXXXO1$$$$%@OXXXOXXXo:$$$$%@OX.oOoXXX:%$$%@OX.oOOoXXX",
"1$$$$$@OX.XOOX.@1$$$$$@OX.XoOX.O1$$$$$$OXXXoOX.o1%$$$$Oo..ooOX.X",
":@OooOOXX..Oo..O:@OooOOXX..oO.XO:$OoOOOoX..oO..o;$OOoOoX..XXOX.X",
";XXXooXX...oO..O;XXXooXX...oOX.O;oXXXoXXX..oOX.X;OXXoXoX..XXOX.X",
";XXoOOoO..XXX..o;XXoOOoO..XXX. X;OXooOoOX.XXo. .;@XOOOOX.XXXX...",
"1@@$$$@OOo$@ooX$1@@$$$@OOo@@OXXO1$O$$$@OOo@$OoXo1*O$$@OOo@$$OoXo",
"1::1;;113111--*-1::1;;113111;-**1:;:;;113111;-**11;;;1;31111;-**",
"oOOOoOO$:@%OXX..oOOOoOO$:O%OX...oOOOoO@O:@%$XX..XOooO@O:%%$$XX..",
"XOO$OO@$1O$@oO..XOO$OO@$1O$$oO..XOO$OO@O1$@$oOX.XOOOO$O:%@$$ooX.",
"o@OOXXo$;OOOXXX.o@OOXXo$;OOOXXX.X@OOXXoO:OoOoXX.XOOoXoo;$OOOooX.",
"o@Ooooo$1O$OOXXXo@Ooooo$1O$OOXXXX@OoooOO1$$@OXXXXOOooOo1%$OOOXXX",
"OooooOO%1O$@oXXoOooooOO%1O$@OXXooOoXOOO@1$$@OXXooOooOOO1%$$$OX.o",
"XXXXXooO;OOX.XXXXXXXXooO;OOX.XXXXXXoXooo;OOXXXXXXoXXoOX;$OXX.XXX",
"O@$$$$$%1$@OOOOOO@$$$$$%1$@OOOOOO@$%$$$%1%@OOOOOO@$$$$@1*$OOoOOO",
"3;;::;;;:;11:;;13;;::;;;:-11:;;:3:;;:;;;:-11:;;;31;::;;1;:111;;;",
">oOOOOoX.XO@XX.O>oOOOOoX..O$XX.o;oOOOOoX..O$oX.X;OoOOoX..O$$o..X",
":@$$$$@OXXOOXXXO:@$$$$@OXXoOXXXo:$%$$$@OX.oOoXXX:%$$%$OX.oOOoXXX",
"1$$$$$@oX.XoOX.@1$$$$$@oX.XXOX.O1%$$$$@oX.XoOX.X1%$$$@OX..ooOo.X",
":@OOOO@oX..OO.XO:@OOOO@oX..oO.XO1$OOOOOoX..oO..o:$OOoOoX..XXOX.X",
";XXXooXX...OO..O;XXXooXX...OO..o;oXXXoXXX..oOX.X;OXXoXo...XX@X.X",
";oXoOoXO..XXX..o;oXoOoXO..XXo..X;OXoOoXO..XXX...;OXOOooX.XXXo...",
"1@O@$$@@Oo$@OoX$1@O@$$@@Oo@@OXXO1$O$$$@@Oo@$OoXo1*O$$$OOo@$$OoXo",
"1;:1;;11311:--**1;:1;;113:1:;-**1:;:;;113111;-**11;;;:;31111;-**",
"oOoOoOO$1O%OXX..oOoOoOO$1O%@XX..XOOOoO@O1@%$XX..XOOoO@o1$$$$XX..",
"oO@$OO@$1O$@oo..oO@$OO@$1O$$oo..XO@$OO$@1$$$oo..XOOOO$O;%$$$ooX.",
"X@OOXXo$;OOoooX.X@OOXXo$;OoOXoX.XOOOXXoO;@oOoXX.XOOoXOo;$OOOoXX.",
"oO@Oooo$:O$OoXXXoO@Oooo$:O$OoXXXX@OoooOO1@$OOXXXXOOoooo1%@OOOXXX",
"OOOoOOO%1@$@OXXXOOOoOOO%1O$@OXXooOOooOO@1$$@OXXooOOOOOO1%$@@OX.o",
"oXXXXOoO;OOXXXXXoXXXXOoO;OOXX.XXXXXXXOoO;@OXXXXXXoXXOoX;$Ooo.X.X",
"O@$%$$@%1$@OoOOOO@$%$$@%1@@OoOOOO@$%$$$$1$@OOOOOOO$$$$O1*$OOoOOO",
"3::::;;:1;11:;;13::::;;:1-11;;;;31::1;;:1-11;;;;31::;;;1;:11:;;;",
";ooOOOoX.XO@X.XO;ooOOOoX..O$XX.o;ooOOOoX..O$oX.X;OoOOoX..O$$O..X",
":$$$$$@O.XOOXXXO:$$$$$@O.XoOXXXo:$$$$$@OXXOOoXXX:%$$%@OX.oOOo.X.",
"1$$$$$$OX.XoOX.@1$$$$$$OX.XoOX.O1%$$$%@OXXXoOX.X1%@$$@Oo.XooOo..",
"1$OOOOOXX..OO.X@1$OOOOOXX..oO..O:$OOOO@oX..XOX.o:%@OO@oX..ooOX.X",
";XXXoooX...OO..O;XXXoooX...oOX.O;oXXXooXX..oOX.X;OXooXo...XXOX.X",
";XXoOOXo..XXo..o;XXoOOXo..XXo..X;OXoOOXo...Xo...;OXoOooX.XXXo...",
"1OO$$$@@oo$OoXX$1OO$$$@@oo@@OXXO2#O$$$@@OoO@OXXo1*O$$$@OX@$$OXXX",
"2:;:;;:13:1:--*-2:;:;;:13:1:;**-2:;;;;::3111;***11;;;:;31111;-**",
"oOoOoOO$1O%OX...oOoOoOO$1O%OXX..oOOOoO@O1@%@XX..XOooO@o1$$$$XX..",
"oOO$OO@$1O%@Xo..oOO$OO@$1@$$oo..XO@$OO$@1$$$ooX.XOOOO$O:%$$$ooX.",
"X@OOXXO$;OOOoo..X@OOXXO$;OOOoXX.X@OOXXOO;@oOooX.XOOoXOo;$OOOoXX.",
"oO@oooo$1O$OoXXXoO@oooo$1O$OoXXXo@@OoooO1@@OOXXXXOOoooo1%$OOOXXX",
"OOOoOOO$:O$@OXXXOOOoOOO$:O$@OXXooOooOOO@:$$$OXXooOOOOOO:%$$$OX.X",
"ooXXXOO#;OOoXXXXooXXXOO#;OOXXXXXooXXXOOO;@OoXXXXooXXoOX;%OooXXXX",
"@@$%$$$%1$$@O@@O@@$%$$$%1@$@O@@O@@$%$$$$1%$@O@@@O@$$$$O1*$@@O@@@"
};
