/* XPM */
static char *_9f9a340d8124a03c36a23af81fe5c88OUcIiS8XqtXCMPH5[] = {
/* columns rows colors chars-per-pixel */
"64 64 155 2 ",
"   c #181818",
".  c #191919",
"X  c gray10",
"o  c #1B1B1B",
"O  c gray11",
"+  c #1D1D1D",
"@  c #1E1E1E",
"#  c gray12",
"$  c #202020",
"%  c gray13",
"&  c #222222",
"*  c #232323",
"=  c gray14",
"-  c #252525",
";  c gray15",
":  c #272727",
">  c #282828",
",  c gray16",
"<  c #2A2A2A",
"1  c gray17",
"2  c #2C2C2C",
"3  c #2D2D2D",
"4  c gray18",
"5  c #2F2F2F",
"6  c gray19",
"7  c #313131",
"8  c #323232",
"9  c #343434",
"0  c #353535",
"q  c gray21",
"w  c #373737",
"e  c gray22",
"r  c #393939",
"t  c #3A3A3A",
"y  c gray23",
"u  c #3C3C3C",
"i  c gray24",
"p  c #3E3E3E",
"a  c #3F3F3F",
"s  c gray25",
"d  c #414141",
"f  c gray26",
"g  c #434343",
"h  c #444444",
"j  c gray27",
"k  c #464646",
"l  c gray28",
"z  c #484848",
"x  c #494949",
"c  c gray29",
"v  c #4B4B4B",
"b  c #4C4C4C",
"n  c gray30",
"m  c #4E4E4E",
"M  c gray31",
"N  c #515151",
"B  c gray32",
"V  c #535353",
"C  c gray33",
"Z  c #555555",
"A  c #565656",
"S  c gray34",
"D  c #585858",
"F  c gray35",
"G  c #5A5A5A",
"H  c #5B5B5B",
"J  c #5D5D5D",
"K  c #606060",
"L  c gray38",
"P  c gray39",
"I  c #646464",
"U  c #656565",
"Y  c gray40",
"T  c #676767",
"R  c #686868",
"E  c DimGray",
"W  c #6A6A6A",
"Q  c gray42",
"!  c #6C6C6C",
"~  c #6F6F6F",
"^  c gray44",
"/  c #717171",
"(  c #727272",
")  c gray45",
"_  c gray46",
"`  c #767676",
"'  c #808080",
"]  c #818181",
"[  c gray51",
"{  c #838383",
"}  c #848484",
"|  c gray52",
" . c #868686",
".. c gray53",
"X. c #888888",
"o. c #898989",
"O. c gray54",
"+. c #8B8B8B",
"@. c gray55",
"#. c #8D8D8D",
"$. c #8E8E8E",
"%. c gray56",
"&. c #909090",
"*. c gray57",
"=. c #929292",
"-. c #939393",
";. c gray58",
":. c #959595",
">. c gray59",
",. c #979797",
"<. c #989898",
"1. c gray60",
"2. c #9A9A9A",
"3. c #9B9B9B",
"4. c gray61",
"5. c #9D9D9D",
"6. c gray62",
"7. c #9F9F9F",
"8. c #A0A0A0",
"9. c gray63",
"0. c #A2A2A2",
"q. c gray64",
"w. c #A4A4A4",
"e. c #A5A5A5",
"r. c gray65",
"t. c #A7A7A7",
"y. c gray66",
"u. c #A9A9A9",
"i. c #AAAAAA",
"p. c gray67",
"a. c #ACACAC",
"s. c gray68",
"d. c #AEAEAE",
"f. c #AFAFAF",
"g. c gray69",
"h. c #B1B1B1",
"j. c #B2B2B2",
"k. c gray70",
"l. c #B4B4B4",
"z. c gray71",
"x. c #B6B6B6",
"c. c #B7B7B7",
"v. c gray72",
"b. c #B9B9B9",
"n. c gray73",
"m. c #BBBBBB",
"M. c #BCBCBC",
"N. c gray74",
"B. c gray",
"V. c gray75",
"C. c #C0C0C0",
"Z. c #C1C1C1",
"A. c gray76",
"S. c #C3C3C3",
"D. c gray77",
/* pixels */
"# * # * , * : 9 3 * : : * # : # * : : # * : , * , * 8 , # : # # # # * * * : * : : # , : : * # * # * : : , : # * # , * * , * # * ",
". ! ( ( U ! W _ ( U U U W ( ( U U W U ( U U U W U W W ! ! U U . . ! ( ( U ! W _ ( U U U W ( ( U U W U ( U U U W U W W ! ! U U # ",
"# U v m P v P B D U Z Z P v Z Z U D m D D v Z m J B D B v B r # # U v m P v P B D U Z Z P v Z Z U D m D D v Z m J B D B v B r . ",
"* ( m f 8 B f v r u Z v 8 B 8 u u 9 9 8 Z r r 9 j 8 Z f r u 3 . . ( m f 8 B f v r u Z v 8 B 8 u u 9 9 8 Z r r 9 j 8 Z f r u 3 # ",
". ( P 8 f r v 9 8 m u B v j u 9 9 8 u P u 9 8 f Z f m 9 W f 9 # # ( P 8 f r v 9 8 m u B v j u 9 9 8 u P u 9 8 f Z f m 9 W f 9 # ",
"# U v r 8 D 8 f v m u D j Z f 8 m f r f 9 Z u f f Z f f u , 9 # * U v r 8 D 8 f v m u D j Z f 8 m f r f 9 Z u f f Z f f u , 9 # ",
". W 9 8 9 f j r 9 3 j 8 r j 9 r 9 r 3 j u r 9 f r , , u 3 8 8 # # W 9 8 9 f j r 9 3 j 8 r j 9 r 9 r 3 j u r 9 f r , , u 3 8 8 # ",
". 3 : u , : 3 3 9 , : , 8 , , 8 : : , 3 , 3 8 3 , , , : : 3 : . # 3 : u , : 3 3 9 , : , 8 , , 8 : : , 3 , 3 8 3 , , , : : 3 : # ",
"# # # * : , * : # : : : * : # * # # : 3 * * * # , , # * * # : # * : , * : # , * : * * 3 3 : * * # # # : # * , : , : , * # , * : ",
"U W U ( U U U W U W W ! ! U U # . ! ( ( U ! W _ ( U U U W ( ( U U W U ( U U U W U W W ! ! U U # . ! ( ( U ! W _ ( U U U W ( ( U ",
"U D m D D v Z m J B D B v B r # * U v m P v P B D U Z Z P v Z Z U D m D D v Z m J B D B v B r . # U v m P v P B D U Z Z P v Z Z ",
"u 9 9 8 Z r r 9 j 8 Z f r u 3 # . ( m f 8 B f v r u Z v 8 B 8 u u 9 9 8 Z r r 9 j 8 Z f r u 3 # . ( m f 8 B f v r u Z v 8 B 8 u ",
"9 8 u P u 9 8 f Z f m 9 W f 9 # # ( P 8 f r v 9 8 m u B v j u 9 9 8 u P u 9 8 f Z f m 9 W f 9 # # ( P 8 f r v 9 8 m u B v j u 9 ",
"m f r f 9 Z u f f Z f f u , 9 . * U v r 8 D 8 f v m u D j Z f 8 m f r f 9 Z u f f Z f f u , 9 . . U v r 8 D 8 f v m u D j Z f 8 ",
"9 r 3 j u r 9 f r , , u 3 8 8 # # W 9 8 9 f j r 9 3 j 8 r j 9 r 9 r 3 j u r 9 f r , , u 3 8 8 # . W 9 8 9 f j r 9 3 j 8 r j 9 r ",
": : , 3 , 3 8 3 , , , : : 3 : . . 3 : u , : 3 3 9 , : , 8 , , 8 : : , 3 , 3 8 3 , , , : : 3 : . . 3 : u , : 3 3 9 , : , 8 , , 8 ",
"* # # : * : , * * , * , # # : * : : * : * * # * # * , , # , * * # # # : , # * : , , * * * * # # * * , : # * * * # # : : # : * # ",
"# ! ( ( U ! W _ ( U U U W ( ( U U W U ( U U U W U W W ! ! U U . . ! ( ( U ! W _ ( U U U W ( ( U U W U ( U U U W U W W ! ! U U # ",
"# U v m P v P B D U Z Z P v Z Z U D m D D v Z m J B D B v B r # # U v m P v P B D U Z Z P v Z Z U D m D D v Z m J B D B v B r * ",
"* ( m f 8 B f v r u Z v 8 B 8 u u 9 9 8 Z r r 9 j 8 Z f r u 3 # . ( m f 8 B f v r u Z v 8 B 8 u u 9 9 8 Z r r 9 j 8 Z f r u 3 * ",
"# ( P 8 f r v 9 8 m u B v j u 9 9 8 u P u 9 8 f Z f m 9 W f 9 * . ( P 8 f r v 9 8 m u B v j u 9 9 8 u P u 9 8 f Z f m 9 W f 9 # ",
"# U v r 8 D 8 f v m u D j Z f 8 m f r f 9 Z u f f Z f f u , 9 # * U v r 8 D 8 f v m u D j Z f 8 m f r f 9 Z u f f Z f f u , 9 . ",
". W 9 8 9 f j r 9 3 j 8 r j 9 r 9 r 3 j u r 9 f r , , u 3 8 8 . # W 9 8 9 f j r 9 3 j 8 r j 9 r 9 r 3 j u r 9 f r , , u 3 8 8 * ",
". 3 : r , : 3 3 9 , : , 8 , , 8 : : , 3 , 3 8 3 , , , : : 3 : . . 3 : u , : 3 3 9 , : , 8 , , 8 : : , 3 , 3 8 3 , , , : : 3 : # ",
": * : # , * 3 * * # * , * , # * . # * # * # : # # # # * # # # . # # * * # : * # : # : # * , # . # * # * : * : : : * * : : * # # ",
"U W U ( U U U W U W W ! ! U U . . ! ( ( U ! W _ ( U U U W ( ( U U W U ( U U U W U W W ! ! U U . . ! ( ( U ! W _ ( U U U W ( ( U ",
"U D m D D v Z m J B D B v B r # . U v m P v P B D U Z Z P v Z Z U D m D D v Z m J B D B v B r . # U v m P v P B D U Z Z P v Z Z ",
"u 9 9 8 Z r r 9 j 8 Z f r u 3 # . ( m f 8 B f v r u Z v 8 B 8 u u 9 9 8 Z r r 9 j 8 Z f r u 3 . . ( m f 8 B f v r u Z v 8 B 8 u ",
"9 8 u P u 9 8 f Z f m 9 W f 9 . . ( P 8 f r v 9 8 m u B v j u 9 9 8 u P u 9 8 f Z f m 9 W f 9 . * ( P 8 f r v 9 8 m u B v j u 9 ",
"m f r f 9 Z u f f Z f f u , 9 . . U v r 8 D 8 f v m u D j Z f 8 m f r f 9 Z u f f Z f f u , 9 . # U v r 8 D 8 f v m u D j Z f 8 ",
"9 r 3 j u r 9 f r , , u 3 8 8 # . W 9 8 9 f j r 9 3 j 8 r j 9 r 9 r 3 j u r 9 f r , , u 3 8 8 . . W 9 8 9 f j r 9 3 j 8 r j 9 r ",
": : , 3 , 3 8 3 , , , : : 3 : # . 3 : u , : 3 3 9 , : , 8 , , 8 : : , 3 , 3 8 3 , , , : : 3 : . # 3 : u , : 3 3 9 , : , 8 , , 8 ",
"* # # : * : , * * , * , # # : * : : * : * * # * # * , , # , * * # # # : , # * : , , * * * * # # * * , : # * * * # # : : # : * # ",
"# ! ( ( U ! W _ ( U U U W ( ( U U W U ( U U U W U W W ! ! U U . . ! ( ( U ! W _ ( U U U W ( ( U U W U ( U U U W U W W ! ! U U # ",
"# U v m P v P B D U Z Z P v Z Z U D m D D v Z m J B D B v B r # # U v m P v P B D U Z Z P v Z Z U D m D D v Z m J B D B v B r * ",
"* ( m f 8 B f v r u Z v 8 B 8 u u 9 9 8 Z r r 9 j 8 Z f r u 3 # . ( m f 8 B f v r u Z v 8 B 8 u u 9 9 8 Z r r 9 j 8 Z f r u 3 * ",
"# ( P 8 f r v 9 8 m u B v j u 9 9 8 u P u 9 8 f Z f m 9 W f 9 * . ( P 8 f r v 9 8 m u B v j u 9 9 8 u P u 9 8 f Z f m 9 W f 9 # ",
"# U v r 8 D 8 f v m u D j Z f 8 m f r f 9 Z u f f Z f f u , 9 # * U v r 8 D 8 f v m u D j Z f 8 m f r f 9 Z u f f Z f f u , 9 # ",
". W 9 8 9 f j r 9 3 j 8 r j 9 r 9 r 3 j u r 9 f r , , u 3 8 8 . # W 9 8 9 f j r 9 3 j 8 r j 9 r 9 r 3 j u r 9 f r , , u 3 8 8 * ",
". 3 : u , : 3 3 9 , : , 8 , , 8 : : , 3 , 3 8 3 , , , : : 3 : . . 3 : u , : 3 3 9 , : , 8 , , 8 : : , 3 , 3 8 3 , , , : : 3 : # ",
": * : # , * 3 * * # * , * , # * . # * # * # : # # # # * # # # . # # * * # : * # : # : # * , # . # * # * : * : : : * * : : * # # ",
"u B W W W W W W W W W W W W W W W W W W W W W W W W W W W W B u u B W W W W W W W W W W W W W W W W W W W W W W W W W W W W B u ",
"P m.e.' ,.0.' ' 3.m.,.h.3.' *.,.h.m.' ' X.' @.z.h...' ..' ' u.P P ' @.' B.e.z.5.' ' 0.5.B.` ..' f.' X.z.3...' e.' f.z.' 3.h.f.P ",
"_ D.' ' 0.X.' ' ' 5.z.B.' ' z...0.z.*.' 0.S.*.5.h.u.' ' ' ' f._ _ ' 3.' 3.z.z.' ..' ..X.f.` *.u.f.3.f.e.' ' ' f.e.e.h.X.3.0.0._ ",
"_ B.' ' *.z.e.' 5.0.,.z.5.' S.' B.u.X.' ' ' ' u.e.f.m.h.' ' u._ _ ' ' 5.5.' z.z.' ' ' z.m.' ' ,.z.' B.h.X.,.3.S.' e.5.' ' z.S._ ",
"_ h.' S.u.m.' ' X.' @.z.' e.h.' ' ..m.z.z.' ' z.e.0.f.u.X.' u._ _ ' 5.z.,.' f.z.B.m.' m.m.' ' ' z.B.m.' ' ' m.m.u.' *...' ' z._ ",
"_ z.m.' ' ' ' h.0.' @.X.' u.' u.*.' f.B.m.' ' *.' ' ' 3.' ' u._ _ ' ..h.e.' ' z.3.f.' ' ' ' ' ' ' ' ' *.' ' 5.' h.e.X.h.3.m.h._ ",
"_ D.z.' 5.z.' ' 0.' z.S.' ' ' B.h.' ' m.u.' ' z.h.@.' ' ' *.u._ _ ' ' ' z.@.' f.' 3.5.' ' ' B.f.' ' m.f.' ' f.B.' ' ' z.f.f.f._ ",
"_ B.h.@.f.*.' ..' ' B.3.f.5.' ' m.S.' ' u.' ' u.z.h.S.' ' ' u._ _ ' ' ' h.e.' X.' h.h...,.' ' e.3.' 5.' ' ' z.5.u.*.' ' @.e.e._ ",
"_ h.' ' ' u.e.z.' ' ' u.*.u.3.' z.m.0.' z.' ' @.X.z.u.X.,.' u._ _ ' ' u.' ' 5.' ' z.z.f.' ' ' ' f.e.e.X.' ' ' ' z.f.' ' 5.5.h._ ",
"_ u.' ' 5.e.f.u.' @.u.f.0.z.3.' ' e.h.' u.,.' f.' z.z.' ' ' u._ _ ' @.f.@.,.B.' 0.f.S.z.@.' ' ' @.X.5.f.z.' ' ' z.u.z.' f.z.0._ ",
"_ z.' ' ' ' 0...' ' ' ' ,.,.' u.,.' *.' B.,.z.0.' u.f.S.' f.u._ _ ' ' z.B.' ' ' @.' ' f.@.u.' 5.z.5.@.,.f.' ' ' B.' 0.' f.z.h._ ",
"_ e.' ' ' ' ' ' ' ' ' ' ' z.f.X.B.S.' ' ' 5.z.S.' S.h.f.' 3.f._ _ ' X.e.3.' ' ' z.' ' 5.*.' ' ' m.B.' X.m.' ' ' ..*.3.' ' ' m._ ",
"_ S.e.h.0.B.u.@.e.3.' ' ' z.S...f.' z.' ' *...' ' ' h.m.@.B.f._ _ ' 3.z.m.m.m.' @.X.z.0.m.h.' ' ' ' h.,.3.' ' m.u.' e.,.' ' D._ ",
"_ D.' ' z.f.' ' ,.' B.h.' ' ,.' f.z.u.' ' e.0.0.' ' ,.' u.0.e._ _ ' B.f.z...@.' ' ' f.f.e.u.u.,.X...*.B.' ' m.' 0.f.*.f.u.' z._ ",
"_ 0.' ' e.X.0.5.f.3.@.z.h.' ' ' h.@.B.' ' z.e.3.' @.' ' *.*.e._ _ ' ' ,...*.3.' ' ' f.' ' m.u.e.e.' ' ..' ' ' z.5.m.' 0.u.z.3._ ",
"_ S.,.' 0.' ' S.*.' e.h.m.' ' ' ' 3.' ' ' *.' ' *.z.z.' ,.z.f._ _ ' ' z.z.0.*.' h.e.' ' e.f.' ' 5.' ' @.' ' ' *.5.f.' ' ' z.0._ ",
"_ S.' ' f.' ' ' ' ' ' 0...X.' ' ..5.' ' ' 3.' ' ' f.S.' h.S.f._ _ ' ' ' ' 5.0.' B.5.' m.' *.' u.e.f.' ' ,.z.h.' ' z.B.3.' z.B._ ",
"_ e.' ' z.u.' 0.X.' ' m.3.' 5.*.m.f.' ' ' z.z.' ' e.' h.u.h.u._ _ ' ' 3.' ' f.5.u.' 0.m...' ' u.z.z.' ' z.h.,.' 3.' z.e.' z.h._ ",
"_ m.' ' B.z.' f.z.' *.*.' ' f.' ' u.B.' ' *.f...@.,.' 0.3.u.f._ _ ' *.5.' *.@.' ' ' 3.m.0.' ' f.h.h.' ' ' 3.u.,.u.' ' ' ' 5.0._ ",
"_ f.' ' ' m.m.z.e.' h...' ' ' ' ' h.m.u.' ' z.S.X.*...S.h.m.f._ _ ' B.5.' ' e.X.' e.@.e.z...' 3.X.' ' 3.' ' ' ' ' ' ' u.5.h.0._ ",
"_ e.' ' 3.h.e.m.,.' ' h.' ' z.0.' 5.h.5.' @.f.f...' X.3.' ' u._ _ ' e.0.' m.h.' ' u.*.' z.,.' h.z.' ' h.' ' z.' ' ' ' X.0.h.e._ ",
"P m.' ' ' h.0.z.' ' e.e.' ' ' z.' @.z.f.' ' u.u.X.' *.h.m.' u.P P ' f.3.' ' ..' ' z.u.' m.X.,.u.0.' @.h.' ' ,.' ' h.' 3.h.h.z.P ",
"v P _ _ _ _ _ _ _ _ _ _ _ _ _ _ _ _ _ _ _ _ _ _ _ _ _ _ _ _ P v v P _ _ _ _ _ _ _ _ _ _ _ _ _ _ _ _ _ _ _ _ _ _ _ _ _ _ _ _ P v "
};
