/* XPM */
static char *_de64989c7214cc5c12bf0d5b4b0906eBrxsnQe203kFLpxu[] = {
/* columns rows colors chars-per-pixel */
"64 64 249 2 ",
"   c #001C00",
".  c #3D1E0D",
"X  c #002302",
"o  c #022500",
"O  c #012B00",
"+  c #022E02",
"@  c #0C2E04",
"#  c #182705",
"$  c #142E05",
"%  c #003100",
"&  c #013402",
"*  c #053500",
"=  c #023706",
"-  c #0D3606",
";  c #003A01",
":  c #043D00",
">  c #003D04",
",  c #083901",
"<  c #0F3D05",
"1  c #1C3600",
"2  c #1C3A08",
"3  c #202E08",
"4  c #3B2A07",
"5  c #342508",
"6  c #3C230B",
"7  c #263004",
"8  c #2C3E0F",
"9  c #3C3307",
"0  c #34320B",
"q  c #30390F",
"w  c #383110",
"e  c #393B16",
"r  c #421D08",
"t  c #441F0A",
"y  c #402009",
"u  c #47210D",
"i  c #4A2309",
"p  c #4D2109",
"a  c #49270B",
"s  c #4F2C0A",
"d  c #55270A",
"f  c #50230D",
"g  c #52250F",
"h  c #58250B",
"j  c #5D290F",
"k  c #45330A",
"l  c #4A310B",
"z  c #5C320D",
"x  c #522A15",
"c  c #582E15",
"v  c #423210",
"b  c #423419",
"n  c #4E321F",
"m  c #533F11",
"M  c #503F16",
"N  c #5E3815",
"B  c #50321A",
"V  c #54311B",
"C  c #553719",
"Z  c #55371E",
"A  c #5C3219",
"S  c #513E1E",
"D  c #5B3D19",
"F  c #62270A",
"G  c #602A0B",
"H  c #632D0E",
"J  c #682C0F",
"K  c #6F2C0C",
"L  c #6D300D",
"P  c #6D350F",
"I  c #723309",
"U  c #77310A",
"Y  c #6B2F12",
"T  c #633317",
"R  c #6E3717",
"E  c #603019",
"W  c #68371A",
"Q  c #64381F",
"!  c #763211",
"~  c #7C3610",
"^  c #7B3B11",
"/  c #723A1A",
"(  c #7D3D19",
")  c #793A1C",
"_  c #533120",
"`  c #553322",
"'  c #513421",
"]  c #5A3720",
"[  c #593A22",
"{  c #5E3A23",
"}  c #623C20",
"|  c #653F23",
" . c #603C25",
".. c #6E3D20",
"X. c #643F28",
"o. c #773F24",
"O. c #004201",
"+. c #044600",
"@. c #014706",
"#. c #094102",
"$. c #0F4607",
"%. c #004B01",
"&. c #004C00",
"*. c #004F05",
"=. c #084901",
"-. c #05410A",
";. c #074A0A",
":. c #0D4E0E",
">. c #114E06",
",. c #1D4608",
"<. c #065000",
"1. c #005502",
"2. c #0C5301",
"3. c #025906",
"4. c #085A00",
"5. c #065209",
"6. c #0D560E",
"7. c #0A5D0B",
"8. c #115E02",
"9. c #135806",
"0. c #17530B",
"q. c #1F5808",
"w. c #185616",
"e. c #1C5F11",
"r. c #29430E",
"t. c #2F4A0F",
"y. c #384009",
"u. c #20520B",
"i. c #3B4C18",
"p. c #295011",
"a. c #275C11",
"s. c #3E5917",
"d. c #006002",
"f. c #006700",
"g. c #056306",
"h. c #026B03",
"j. c #0C660B",
"k. c #176A04",
"l. c #11690E",
"z. c #007200",
"x. c #047603",
"c. c #017E00",
"v. c #00740E",
"b. c #0E700A",
"n. c #007D0C",
"m. c #117A0A",
"M. c #0F6B19",
"N. c #146311",
"B. c #1A6716",
"V. c #156C11",
"C. c #0A7A16",
"Z. c #0F7318",
"A. c #167410",
"S. c #1C7016",
"D. c #22720F",
"F. c #2B700E",
"G. c #226A11",
"H. c #286815",
"J. c #386E17",
"K. c #3C6219",
"L. c #29701D",
"P. c #207B18",
"I. c #26781E",
"U. c #1C7B20",
"Y. c #404012",
"T. c #474B12",
"R. c #49401B",
"E. c #584C1B",
"W. c #465B1A",
"Q. c #7F430F",
"!. c #624315",
"~. c #68411F",
"^. c #79401F",
"/. c #62541D",
"(. c #6C521E",
"). c #6D581C",
"_. c #7A571D",
"`. c #4B6C11",
"'. c #534C23",
"]. c #5E4328",
"[. c #4E5820",
"{. c #634526",
"}. c #684225",
"|. c #6C4026",
" X c #6C4629",
".X c #68432C",
"XX c #7E4423",
"oX c #71442A",
"OX c #754728",
"+X c #724B2C",
"@X c #75482E",
"#X c #7B4D2C",
"$X c #6B532B",
"%X c #7A4C31",
"&X c #7D4F34",
"*X c #646E24",
"=X c #6E6A2E",
"-X c #766A23",
";X c #77622F",
":X c #833612",
">X c #893B10",
",X c #8E441E",
"<X c #9A491E",
"1X c #824720",
"2X c #854420",
"3X c #824726",
"4X c #8A4824",
"5X c #884729",
"6X c #9A4F27",
"7X c #904D28",
"8X c #954C2A",
"9X c #8F5627",
"0X c #855821",
"qX c #89532F",
"wX c #975328",
"eX c #805131",
"rX c #855032",
"tX c #845433",
"yX c #8D5632",
"uX c #885D36",
"iX c #8D5738",
"pX c #8A5A39",
"aX c #975F3A",
"sX c #A1562D",
"dX c #A05C2A",
"fX c #AB5D2B",
"gX c #AB582C",
"hX c #AF5B2F",
"jX c #B25D2B",
"kX c #9D6C2A",
"lX c #AC672F",
"zX c #B6602E",
"xX c #C26434",
"cX c #0D8205",
"vX c #00880A",
"bX c #17870D",
"nX c #148F0A",
"mX c #0E8517",
"MX c #0E8E16",
"NX c #16801C",
"BX c #169411",
"VX c #1C951E",
"CX c #2A8014",
"ZX c #208B14",
"AX c #238518",
"SX c #28811E",
"DX c #238025",
"FX c #228E22",
"GX c #249F23",
/* pixels */
"@.> cX7.#.; U.2.O.#.3.*.O.5.g.% 6.6.5.<.7.2.d.*.& > 1.m.=., ; O.* g.3.%.5.g.2.NXb.& + B.h.+.@.; B.; > cX7.#.; U.2.O.#.3.*.O.5.g.",
"VXX O.2.v.;.: vXg.%.:.: O.S.<.4.m.@.7.+.C.NX#.A.z.8.O % #.C.BXv.#.SX#.+ L.o *.% j.AXm.7.; AXh.j.7.mXX O.2.v.;.: vXg.%.:.: O.l.*.",
"-.NXg.l.m.n.j.j.h.7.c.x.2.*.S.MXg.3.C.g.> , l.O.d.P.h.c.=.O < =.5.> 3.X N.O.;.5.%.8.& ; d.* j.1.% -.NXg.l.m.n.j.j.h.7.c.x.2.5.N.",
"b.O.1.8.O 6.C.o *.; > L.l.*.*.O ;.g.7.9.ZX7.m.; -.*.#.-.4.2.g.4.j.b.GX1.< B.g.m.+ 5.m.% > - O.3.g.g.O.1.8.O 6.C.o *.; > L.l.*.O.",
"d.O.> 0.*.1.#.g.* N.j.1.5.>.#.C.l.% =.+ 6.% , 8.b.% I.S.7.& :.g.b.O :.mX2.@.4.O P.X 5.c.nXm.l.g.=.2.O.> 0.*.1.#.g.* N.j.1.5.>.;.",
"#.b.j.3.=.O.b.=.3.j.b.3.AXb.1.* m.@.e.O.$.1.; ;.A.: <.1.z.m.@.% l.5.; O -.& AXm.1.h.% % >.DXj.7.j.*.b.j.3.=.O.b.=.3.j.b.3.AXb.d.",
"P.; N.%.FXb.@.AXj.*., B.% SXm.@.>.j.m.cX, Z.c.=.=.O.O = & N.m.%.; 3.vXVX#.b.@.7.B.ZX%.1.+ O.; *.; SX; N.%.FXb.@.AXj.*., B.% SXZX",
"O.; +.$.+ 0.%.% B.+.+.=.d.-.% 4.*.3.+ +.mXX 0.V.> m.nX@.h.o , #.g.o & 7.#.=.4.d.=.@.FXcXO.+.3.d.; #.; +.$.+ 0.%.% B.+.+.=.d.#.; ",
"m.cXb.f.MXO.A.z.= 6.m.b.N.V.d.N.g.P.b.vX@.U.cX*.l.>.O % ; f.mXh.j.vX1.6.7.l.X *.*.% @.; 1.I.=.FXf.f.cXb.f.MXO.A.z.= 6.m.b.N.S.b.",
"X #.h.+ P.O.% @.NXh.O 3.; + : & l.j.1.*.1., , = ; z.z.vXm.& : : >.S.O l.O d.& ;.Z.& 1.O.: M.8.1.1.+ #.h.+ P.O.% @.NXh.O 3.; + #.",
"c.mXl.l.#.N.mX+ % VXn.x.=.+.7.b.*.* + #.9.j.VXf.g.; % -.I.3.1.l.3.#.n.@.l.@.7.j.2.m.S.j.o & + :.B.z.mXl.l.#.N.mX+ % VXn.x.=.+.<.",
"> *.P.f.+ @.N.f.j.O @.6.2.z.*.#.=.P.m.=.j.o P.> %.;.1.d.4.+ : *.%.+ 7.z.+ l.+ 1.1.% +.h.z.b.nX>.O < *.P.f.+ @.N.f.j.O @.6.2.z.j.",
"5.@.; ; l.j.d.=.; O S.b.O < O.Z.S.h., @.> 7.% ; e.&.& :.j.#.j.#.3.*.& e.cX*.#.: AXcXb.; %.#.; g.m.3.@.; ; l.j.d.=.; O S.b.O < j.",
"6.5.U.m.d.O * U.z.o % DXm.b.3.v.%.>.: I.c.7.z.d.> 0.cX3.; d.2.; 1.1., < 5.mX*.@.& % ; S.A.*.+.5.O.*.5.U.m.d.O * U.z.o % DXm.b.9.",
"m.j.#.j.cX5.3.7.@.x.=.> o j.f.O.%.A.f.2.*.O e.S.3.8.1.j.1.l.AXBX=.n.%.O.d.>.mXm.3.6.bXm.g.VXb.7.MXb.j.#.j.cX5.3.7.@.x.=.> o j.3.",
"1.<.FX8.l.C.+ 6.*.<.nXMXn.$.% *.: O >.& >.2.>.N.4.; C., 2.%.& $.& + U.7.5.ZX*.% AX7.@.#.N.+.> =.;.<.<.FX8.l.C.+ 6.*.<.nXMXn.$., ",
"I.@.& M.*.; f.Z.S.=.#.O g.=.7.N.S.*.d.nXAX1.m.% ;.%.w.h.; > m.& 3.<.g.5.X < N.+ : ; P.1.; 3.x.7.g.I.@.& M.*.; f.Z.S.=.#.O g.@.+ ",
"h.j.g.d.3.d.% <.O % AX3.% VXnXAX; O ; #.; * 9.m.3.j.m.h.g.; 6.; 5.h.7.b.<.cX@.g.m.c.O.j.h.5.*.o >.k.j.g.d.3.d.% <.O % AX3.% VXcX",
"A.b.2.: <.g.+ U.z.ZX+ 7.O.& =.@.d.d.AXm.l.2.% = % 9.#.< #.O.S.I.d.l.*.* l.N.SXd.% 7.O e.#.g.2.v.; B.b.2.: <.g.+ U.z.ZX+ 7.O.& 3.",
", d.1.o 6.I.d.% : +.f.= 6.+ ;.+ B.f.#.SXb.vXMXBX; V.; FXGX4.S., & , *.; +.S.% mX* ;.3.g.A.l.%.b.*.= d.1.o 6.I.d.% : +.f.= 6.O = ",
"@.;.P.; j.3.b.j.SXS.l.g.; g.2.7.3.> @.= % +., < Q.O.*.< = 9.7.z.*.*.I.1.5.3.% = P.g.z.; % I.& O.g.=.;.P.; j.3.b.j.SXS.l.g.; d.O.",
"VX1.=.cX5., %   :.o >.mX3.z.6.% > d.h.3.5.#.m.H.^ <.& =.3.O.O.j.VX1.O.o 5.%.7.4.7., 9.nX*.*.N.S.l.mX1.=.cX5., %   :.o >.mX3.z.b.",
"#.l.S.#.AX*.GXc.%.h.e.7.+ g.m.ZX= %.; =.nXj.@./.~ 8 z.#.1.<.n.a.:XOXK.h.d.j.AX*.d.O.% 6.A.O.h.1.3.;.[.G.#.AX*.VXm.%.b.j.7.+ e.D.",
"z.% :.+ @.O $.*.#.s j >.; B.* ;.2 s.I.*.#.8.% 9 U d S.h.I.; ;.,.:Xj d =.1.O.3.; % S.=.+ $.P.l.N.; p.j r.+ @.O z ~ 0 7 % 9.0 d L ",
"*Xb.f.* l.f.=.7.-XxXlX- 1.B.+.bXlXxXlXF.; g.`.kXxXfX*.* + o + 8 xXxXdXh.1.; L.m.<.; 2.1.& _.dXfXxXxXxX0X* l.H.xXxXxXxX`.m zXxXxX",
"aXr.;.C.j.#.4.'.uXaXaX(.g.l.O.< aXaXaXs.% H.aXaXaX$X% l.d.x.#.J.aXaXtXl.v.cXO O.O.mXz.8.cX;XaXaXaXaXaX2XW.j.r.aXaXaXaX2X~ yXaXaX",
"OX+X9.o :.o ZX+XoXoX@X/ t.; 7.g.p. X@XN q.M oX@X@XD.nX9.y.* g.K.oX@X@X,.*.%.S.AXD.,.; %.N.H.R.oXoXoX@X/ L :.3 oXOXOX@X/ U OXOXoX",
"d d l 0.A.; - d d d d J U t.P.S.Z.T.d J I d d d k B.$.z U G.: P.J.d d G.=.I.O.4 d d y.D.+ ;.9 d d d d J U s.4 d d d d J U d d d ",
">XhXzXhX_.).0X<X>XjXzXzXzXdX,.@.5.9XzXzXzXhXjX<X!.3.*XzXzXdXE.y.$ jXzX-XT.- 5._.>XhXzXdX(.dXzX<X>XjXzXzXzXhXzX<X>XhXzXzXzXzXzX<X",
"~ yXaXaXaXaXaX1X~ yXaXaXaXaX;X: *.qXaXaXaXaXaX1XU #XuXaXaXyXaX1X~ yXaXaXaX=Xg.=.k yXaXaXaXaXaX1X~ yXaXaXaXaXaX2X~ yXaXaXaXaXaX1X",
"! |. X|.|. X X/ ! |. X}.|. X{.b.g.|. X}. XoX X/ U |.}.}.oXoX|./ ! |. X X|.|.{.!.P |. X|.|. X X/ ! |. X}. X|.}./ ! |. X|.|. X X/ ",
"K d g d g d g G K d g g g d g G K d g g g d f G K d f g g d f G K d d g g g g G K d g d g d g G K d g g g g g G K d g d g d g G ",
"hXgXhX<X:XgXhXhXhXhXhX<X:XgXhXhXhXhXhX<X:XgXhXhXfXhXhX,X:XgXhXhXhXhXhX<X:XgXhXhXhXgXhX<X:XgXhXhXhXhXhX<X:XgXhXhXhXgXhX<X:XgXhXhX",
"iXiXpXXX! rXiXiXiXiXpX^.! rXiXiXiXiXpX^.! rXiXiXiXpXpX^.! rXiXiXiXiXpX^.! rXiXiXiXiXpXXX! rXiXiXiXiXpX^.! rXiXiXiXiXpXXX! rXiXiX",
"| | | W L |.| }.}.}.| W L |.| }.}.}.| W L |.|. X|.| }.R L |.| | | | | W L |.}.| | | | W L |.| }.}.}.| W L |.}.| | | | W L |.| }.",
"f f f G K f f g f f f G K f f g f f f G K f p f f f f j L d f g f f f j K f f f f f f G K f f g f f f G K f f f f f f G K f f g ",
"~ 6XsXsXsXsXsX,X~ 6XsXsXsXsXsX,X~ 6XsXsXsXsXsX,X~ 6XsXsXsXgXgX,X~ 6XsXsXsXsXsX,X~ 6XsXsXsXsXsX,X~ 6XsXsXsXsXsX,X~ 6XsXsXsXsXsX,X",
"L #XtXeXtXtXeX^.L #XtXtXtXtXeX^.L #XtXtXeXtXtX/ L rXtXtXtXeXtX^.L #XtXtXtXtXtXR L #XtXeXtXtXeX^.L #XtXtXeXtXtXR L #XtXeXtXtXeX^.",
"L Q } | | } X.T J Q  .} | } X.T J Q  .} | | X.T L Q X.| } }  .T L }  .} } } X.W L Q } | | } X.T J Q  .} | } X.W L Q } | | } X.T ",
"J f i i i p i h J g i f i p i h J g i f i p p h F f i i i f i j L f p i i i i h J f i i i p i h J g i f i i i h J f i i i p i h ",
"wX6X6X2X! 8XwX6XwX6XwX2X! 8XwX6XwX6XwX2X! 6XwXwXwX6X6X2X! wX6X6XwX6X6X2X! 6X6X6XwX6X6X2X! 8XwX6XwX6XwX2X! 6X6X6XwX6X6X2X! 8XwX6X",
"#X&XeX..J @X&X#X&X&X&X..J @X&X#X&X&X&X..J OX&X%X&X&X#X..J %XeX&X&X&X&X..L @X&XeX#X&XeX..J @X&X#X&X&X&X..J @X&XeX#X&XeX..J @X&X#X",
" . .{ T J { { { {  . .T J { { { {  . .T H { {  . .{ { T H { { { { {  .T H { { {  . .{ T J { { { {  . .T H { { {  . .{ T J { { { ",
"u i u d F i u i p u u d F i u i p u u d G i p u u i u d F i i u i i u d F i i u u i u d F i u i p u u d G i i u u i u d F i u i ",
"Y 4X7X7X7X7X7X( L 4X7X7X7X7X7X( L 4X7X7X7X7X7X( L 4X7X7X7X7X7X( L 4X7X7X7X7X7X( Y 4X7X7X7X7X7X( L 4X7X7X7X7X7X( Y 4X7X7X7X7X7X( ",
"F oX%X@X@X%X%XW G oX%X%X@X%X%XW G oX%X%X@X@X+XW H oX@X@X@X@X+XW F oX+X@X@X%X%XW F oX%X@X@X%X%XW G oX%X%X@X%X%XW F oX%X@X@X%X%XW ",
"j Z ] ] { { ] E G Z Z ] { { ] E G Z Z ] ] ] Z E G ] [ { { ] Z E G ] ] { { ] Z E j Z ] ] { { ] E G Z Z ] ] ] Z E j Z ] ] { { ] E ",
"F i u u u u u g j u u u u u u g j u u u u u u f j i u u u u t f F u u u u u u g F i u u u u u g j u u u u u u g F i u u u u u g ",
"1X4X5X( J 5X3X2X4X4X5X) J 5X3X2X4X4X5X) J 2X4X5X4X4X5X) J 3X4X5X4X4X4X) J 1X4X2X1X4X5X( J 5X3X2X4X4X5X) J 1X4X2X1X4X5X( J 5X3X2X",
" XoX XE j }. X X X X XE j }. X X X X XE j |  X X X X XT j X. XoX X X XT j |  XoX XoX XE j }. X X X X XE j |  XoX XoX XE j }. X X",
"] Z Z c h V Z Z ` Z Z c h V Z Z ` Z Z c j V V ] Z ] ` c j V ] Z V ` Z c j V ' Z ] Z Z c h V Z Z ` Z Z c j V ' Z ] Z Z c h V Z Z ",
"t t t f h u u u u u r f h u u u u u r f h u t u u t u f h u r u u u t f h u t u t t t f h u u u u u r f h u t u t t t f h u u u ",
"H XXXXXXXX3X3X/ H XXXXXXXX3X3X/ H XXXXXXXXXX3XR H XXXXXXXXXXXXR H XXXXXX3XXX3X/ H XXXXXXXX3X3X/ H XXXXXXXXXX3X/ H XXXXXXXX3X3X/ ",
"j X..X.X.X.X.XA h X. X.X.X.X.XA i.[  X.X.X.X.XA j X..X.X.XX..XA h  ..X.XX..X.XA j X..X.X.X.X.XA h X. X.X.X.X.XA j X..X.X.X.X.XA ",
"d V ' B Z ' ' c h _ B B Z ' ' 7 m.b B B ' ' n c d _ Z B Z _ ` c h V ' B _ ' ' c d V ' B Z ' ' c h _ B B ' ' ' c d V ' B Z ' ' c ",
"h r r y y r r p d 0 . r y r r 2 $.u w t.5 r r f h r r r r y y p h u y r y r r p h r r y 5 r r p d u r r t r r p h r r y y r r p ",
"^.^.M N j ^.^.M B.,.^.W j ^.^.u.>.E.@ +.J.N ^.^.^.o.o.W j C M ^.^.o.o.W j o.o.o.^.^.^.K.0 ^.^.^...^.^.W j o.o.o.S OX^.W j ^.^.^.",
"X.X.e.q.d { '.z.= i.X.c d { X.i.g.P.k.S d { X.X.X.X.X.c d e.W.X.X.X.X.c h  .# t.].X. ., q { X.X.X.X.X.c d  .X.X.'.- ].A s i.].X.",
"n n b + Y.n w @.NXp.n x g n ' n N.j.$.x g b b n n n n x y.& w n ' n n x d n b $.B.n e O.1 n b e n n n x g n n ' w NXe.6 0., n n ",
"0 0 r.l.#.w 6 + % FX4 i a +.,.0 1 * + 4 k g.CX6 . r . y L.2.y . . r r u f r 5 N.2.u.r.j.o - + :.e.r.r i f r . y # % VXk.x.=.+.*.",
"> *.P.f.+ @.a.k.j.O @.p.0.z.*.#.=.P.m.=.j.o P.< d ..t.7.4.+ D W l v ~.....s.$ 1.1.% +.h.z.b.nX>.$ D ........o.T f.j.O @.6.2.z.j.",
"5.@.; ; l.j.d.=.; O S.b.O < O.Z.S.h., @.> 7.% ; p.,.& :.j.#.8.q 1.*.e S H.*.#.: AXcXb.; %.#.; g.k.[ X.S 2 a.X.Y.=.; O S.b.O < j.",
"6.5.P.m.d.O * U.z.O % DXcXb.d.m.%.>.: I.c.d.z.d.> 0.cX3.; d.%.% 1.1.#.< 5.mX%.@.& % ; S.P.%.+.5.O.*.5.P.m.d.O * U.z.O % DXcXb.9.",
"g.% l.d.A.%.b.+.7.b.@.$.% 3.d.; =.AXO.O.; O.7.O.h.=.#.S.O Z.ZX%.O.3.b.l.O.0.1.m.<.b.h.*.l.AX=.j.mX1.% l.d.A.%.b.+.7.b.@.$.% 1.f."
};
