/* XPM */
static char *_e96ef092dff4375e995ef5c8d97d507KxaixHec3SznoMI6[] = {
/* columns rows colors chars-per-pixel */
"64 64 2 1 ",
"  c black",
". c white",
/* pixels */
"                                                                ",
"                                                                ",
"                                                                ",
"                                                                ",
"                                                                ",
"                                                                ",
"                                                                ",
"                                                                ",
"                                                                ",
"                                                                ",
"    ..............                            ..............    ",
"    ..............                            ..............    ",
"      ..........                                ..........      ",
"      ..........                                ..........      ",
"      ..........                                ..........      ",
"      ..........                                ..........      ",
"      ..........                                ..........      ",
"      ..........                                ..........      ",
"      ..........                                ..........      ",
"      ..........                                ..........      ",
"      ..........                                ..........      ",
"      ..........                                ..........      ",
"      ..........                                ..........      ",
"      ..........                                ..........      ",
"        ........                                ........        ",
"        ........                                ........        ",
"        ........                                ........        ",
"        ........                                ........        ",
"        ........                                ........        ",
"        ........                                ........        ",
"        ........                                ........        ",
"        ........                                ........        ",
"        ..........                            ..........        ",
"        ..........                            ..........        ",
"          ........                            ........          ",
"          ........                            ........          ",
"          ........            ....            ........          ",
"          ........            ....            ........          ",
"          ........            ....            ........          ",
"          ........            ....            ........          ",
"          ..........        ........        ..........          ",
"          ..........        ........        ..........          ",
"            ........        ........        ........            ",
"            ........        ........        ........            ",
"            ........        ........        ........            ",
"            ........        ........        ........            ",
"            ..........  ......    ......  ..........            ",
"            ..........  ......    ......  ..........            ",
"            ..................    ..................            ",
"            ..................    ..................            ",
"              ..............        ..............              ",
"              ..............        ..............              ",
"              ............            ............              ",
"              ............            ............              ",
"              ........                    ........              ",
"              ........                    ........              ",
"              ......                        ......              ",
"              ......                        ......              ",
"                                                                ",
"                                                                ",
"                                                                ",
"                                                                ",
"                                                                ",
"                                                                "
};
