/* XPM */
static char *brick_2997965_640_1_1700734718[] = {
/* columns rows colors chars-per-pixel */
"64 64 197 2 ",
"   c #3D2F30",
".  c #442D2F",
"X  c #4F2D2E",
"o  c #532C2E",
"O  c #5A2D2E",
"+  c #452F30",
"@  c #4E2F30",
"#  c #542F31",
"$  c #5B2F30",
"%  c #473535",
"&  c #563031",
"*  c #5D3132",
"=  c #5C3B3B",
"-  c #642E2F",
";  c #6A2D2F",
":  c #742D2F",
">  c #7D2D2F",
",  c #642F30",
"<  c #6D2E30",
"1  c #742E30",
"2  c #7C2E30",
"3  c #643132",
"4  c #6C3132",
"5  c #6B3738",
"6  c #743132",
"7  c #7C3133",
"8  c #78393A",
"9  c #7B3B3C",
"0  c #574A49",
"q  c #5C504E",
"w  c #6A4241",
"e  c #7A4545",
"r  c #734A49",
"t  c #7A4D4B",
"y  c #685754",
"u  c #765451",
"i  c #7C5B58",
"p  c #7E635F",
"a  c #7A6763",
"s  c #832D2F",
"d  c #8C2C2F",
"f  c #992D2F",
"g  c #832F31",
"h  c #8C2F31",
"j  c #942F31",
"k  c #9A2F31",
"l  c #843133",
"z  c #8C3133",
"x  c #823738",
"c  c #8A3738",
"v  c #833B3B",
"b  c #8B3A3B",
"n  c #943233",
"m  c #9B3234",
"M  c #943738",
"N  c #9C3738",
"B  c #943B3C",
"V  c #9D3B3C",
"C  c #A03E3E",
"Z  c #9A3F40",
"A  c #A13F40",
"S  c #854444",
"D  c #8D4242",
"F  c #874847",
"G  c #844B4A",
"H  c #8B4C4B",
"J  c #964443",
"K  c #9C4444",
"L  c #954847",
"P  c #934C4B",
"I  c #9C4C4B",
"U  c #8C514F",
"Y  c #91504F",
"T  c #9D504F",
"R  c #8B5452",
"E  c #865856",
"W  c #8E5E5A",
"Q  c #935452",
"!  c #9D5452",
"~  c #945A57",
"^  c #9C5956",
"/  c #915C59",
"(  c #9D5D5A",
")  c #A24444",
"_  c #A34847",
"`  c #A44C4B",
"'  c #A6504F",
"]  c #A8514F",
"[  c #A55352",
"{  c #A85453",
"}  c #A55956",
"|  c #AA5957",
" . c #A45C5A",
".. c #AB5C5A",
"X. c #8B625E",
"o. c #93625E",
"O. c #9D615D",
"+. c #A4615E",
"@. c #AC625E",
"#. c #8C6C67",
"$. c #9C6662",
"%. c #946A65",
"&. c #956A66",
"*. c #9B6A65",
"=. c #9D6E69",
"-. c #88736D",
";. c #91706B",
":. c #9D746F",
">. c #8B7771",
",. c #8B7C75",
"<. c #947973",
"1. c #9C7A74",
"2. c #A36561",
"3. c #AE6561",
"4. c #A46C67",
"5. c #AC6A66",
"6. c #A46E69",
"7. c #AE6D69",
"8. c #B06662",
"9. c #B16A66",
"0. c #B16E69",
"q. c #A3726D",
"w. c #AC736D",
"e. c #B3736D",
"r. c #A27671",
"t. c #AC7671",
"y. c #A47B74",
"u. c #AD7A74",
"i. c #A27F79",
"p. c #AD7F79",
"a. c #B47670",
"s. c #B57A74",
"d. c #B87D77",
"f. c #B37F78",
"g. c #B87F78",
"h. c #8E847D",
"j. c #94817A",
"k. c #9D827A",
"l. c #A2847C",
"z. c #AC847D",
"x. c #B5827B",
"c. c #BA837C",
"v. c #958D84",
"b. c #9B8981",
"n. c #9C9188",
"m. c #A38F87",
"M. c #AC8B83",
"N. c #BB8780",
"B. c #B48C83",
"V. c #BD8C84",
"C. c #A6938A",
"Z. c #AD928A",
"A. c #BF9087",
"S. c #B6938A",
"D. c #BD938A",
"F. c #BB988F",
"G. c #A79C92",
"H. c #AB9D93",
"J. c #B59C92",
"K. c #BE9D93",
"L. c #ADA69B",
"P. c #B4A196",
"I. c #BBA197",
"U. c #BDA499",
"Y. c #BDA99E",
"T. c #B5ADA1",
"R. c #BDACA1",
"E. c #BDB3A6",
"W. c #BEB8AB",
"Q. c #C1948B",
"!. c #C1988F",
"~. c #C39D93",
"^. c #C5A196",
"/. c #C5A59A",
"(. c #C8A69C",
"). c #C5A99E",
"_. c #C9AA9E",
"`. c #C5ADA2",
"'. c #C9ADA2",
"]. c #C6B0A4",
"[. c #CBB2A6",
"{. c #C6B6A9",
"}. c #CCB6A9",
"|. c #C4BAAC",
" X c #CDBAAD",
".X c #D0BCAF",
"XX c #C5BFB1",
"oX c #CDBEB1",
"OX c #D0BEB1",
"+X c #CDC3B5",
"@X c #CDC8B9",
"#X c #D2C3B5",
"$X c #D3C7B9",
"%X c #D4CBBC",
"&X c #D6CFC0",
"*X c #D7D1C2",
"=X c #D8D3C3",
/* pixels */
"~.V m m m m m m n z l z n n Z ~.K n n n l 3 n z 7 n m m z K /.) g 1 l n m z n 7 z m m m m m n s N.!.m C m m m m m m m m m m z l ",
"!.m m z 7 n n n m n n 2 7 g { ].9 4 6 l n n z z l z z m z V !.A l l n n z z n I N m m _ N m N N c.s.m ` N m m m z m m m m l 7 n ",
"!.N m n z l z j m m m m z h ..}.V 3 @ 6 l n l m m n n n m V ~.K m m g 6 z 7 z m m m m V m m N C ~.s.m n m m m m m V C B n N m m ",
"Q.m m m m m m n m m M m m k ) /.A g 6 l n z m m m n n z n V ^._ m m n 7 7 z l l n m m m m m z m ~.c.m m m m m m m K N z z m m m ",
"Q.l 2 h j k k k k k j k k k N V.B g 2 # > d n n m j l t F.g.'.) k k k n j g 2 g 1 k k m m k k k ~.c.f k m k m k m m k n j k h k ",
"%Xn.-.r.7.5.3.3...} } ..3.3.9.[.J.,.1.y.l.p.c.a.e.4.q.k.+X[.%X!.d.a.$. .5.W #. ...| ....| 8.9.e.}.OX8.{ { ] [ { [ I ` ] { { [ { ",
"d.d.d.x.g.g.a.'.V.0.0.a.a.a.d.z.k.x.x.c.B.Z.V.!.(.%X/.I.K.D.I.R.'.'.)./.(.!.A.`.&X.X!.!.!.~././.(.^.c.g.c.Q.Q.K.oXa.9.6.6.2.7.e.",
"k h j j j g g 5.S h k k k k h j h 1 l j j j n h =.J.V c n l 6 6 M V N N N n m ` %Xs.k N ) ` V N C k C k N m j L (.V k z 1 O h m ",
"l $ l m z z j a.R 2 m m m m 7 l m z n m n n n j e.D.2 7 m n n l z n n n m l z _ #X0.N m m N m m m m N m m m n _ ~.V m m m n n z ",
"n M z z z z 2 d...k m n z n n n m m m m z 6 z m e.D.2 3 z n z z n z z m z 7 g _ #Xa.m m m m m m m m m m m m m ) ~.B z 7 n m 4 3 ",
"m n m m m m j 9.` k h n N l z n m m m m m 3 6 f a.P.4 4 z m m n n l 7 z 7 4 g K +Xs.m m m m m m m m m m z 3 - D ~.v 1 , l z 4 3 ",
"k h k h j m j 6.{ h g j j 2 l g h n n n 7 3 6 V t.`.Z , 2 l z g h < 1 h j n k ) $Xs.k m j j k k k m k k s ; o e /.v 1 2 4 < j k ",
"0.0.7.5.3.a.@.D.A.a.a.7.5.) ' Q S _ K K e e D 9 z.*X[.Z.*. .*.5.#./ ~ ~ } } } 5.&X(.9.9.$.a *.e.e.a.s.e.0.q.y.z.#XG.>.l.C.h.<.a.",
"| { [ [ ! [ P } { ..3.@.} I B.B.T { { _ H F L L } 5.5.7.e.s.x.d.D.'.Q.Q.V.N.f.g.N.N.d.y.a.a.a.g._.d.d.c.c.d.e.e.q.;.%.0.0.7.s.[.",
"k m k j j k j j k k k g 2 s 6.3.j m j z n m n 7 n z < 1 2 n k j ` a.m m k j , z k m k 2 > h k m 9.N k m k k k k n h l m k k m ~.",
"n m m m n n m k M n 2 < j j a.5.s z n 7 3 7 7 1 l 7 l 3 $ l n n ` s.m m m m n n m m m m n m m N @.N m n z n m m m l B ) V m N A.",
"7 z n n n z n n 7 1 * * 7 d 0.%.X - z l . + 3 4 1 l 6 3 1 z m j _ 0.m m m m m m m m m m m m m N 9.C k n 3 6 m m m l n C B 6 8 B.",
"V n j k z z 6 7 l 6 6 z z m 5.*.: l 7 7 + o 6 l # $ 4 l l z m j _ e.m n m C m V N m m m m m m N t.8 2 l n n m m 6 z m m 1   + C.",
"0.B B _ N m n M c l z n n n t.(.` Z c z - ; : d 1 ; o < h n m k J e.k j m A m V m k j ; j j j 5 l.6 ; s m k k j ; o z m j > 7 ~.",
"+X'.(.oX/.~.~.'.U.~.!.A.D.N. X=XOX}.D.e.3.^ 3.0...5.$.( / | @.5.f.K.8.@.....3.0.9.8.2.#.5.r.r.y.[.d.e.q.e.e.s.u.1.>.:.a.s.c.!.$X",
"I.M.i a ;.f.g.#XF.7...^ ..( O.3.@...| ^ E R K.Z.+.3.o.X.p ' ` [ / u ~ { I | c.^.[.'.c.p.s.s.a.c.c.e.V.C.m.B.S.E.W.a i +.9.c.a.d.",
"D v ; : 2 g c ~.P d m m k m k f m n h j 7 > y.$.h 2 h g > m m g : O 1 k m z c N { ..N j k k m k m n d - . 6 h X.G.. - j k ) _ _ ",
"m z z m n m n V.P z m m n n n z z n 7 n l g >.5.c z z l 6 l m n m n 6 6 6 7 n m ] C h l f k m m m f k f z n z | C.+ , m m m N C ",
"z m m m l g m B.` m m m m m m m 6 6 z m n > 1.2.6 7 < z z n m n n z * 4 ; 7 m m 7.} V N C m m m m C C f m m h +.C.3 n m m m m k ",
"m m n m n n N A.' m n z m m m m z z m m z ; 1. .d 3 + 6 n n m n 6 , 6 n n 7 n m u.O.C B n m m m j k m m m m z #./.N m m m m m m ",
"m n 7 6 m m A /.` z 3 3 n k m m n n z m m m s.8.f n z n m n n l 7 n m z 7 z m ) x.P k n n n z l z f C m C m j X.D.m m m m m m m ",
"m K 8 * m j v {.3.: : 2 j j h m m m j z V A V.V.` ` ` m h h : h j 2 j s > 7 L N s.` f C m k g o < h k m f k j O.c.k j j k m k k ",
"s. XY.q.e.s.B.*X[.z.Q.Q.Q.V.c.N.V.V.N.A._._.#X=X%X$X#Xz.#.%.6.7.e.:.w.s.a.x.c.c.[.f.3.3.{ | { G 0 r _ ) J S _ c.+XA.1.w.0.0.e.a.",
"s.s.s.a.s.u.s.u.s.y.s.s.Q.%X XJ.J.~.~.~.^.~.~.~.^.^.K.I.@X$X^.V.c.c.z.k.l.g.g.g.s.s.s.D.].$X#Xs.w.w.e.0.5.;.w.,.h.z.c._.OXV.V.d.",
"k k k k ; ; d m f z j f ] $X+.: ; g 6 l m m N z l n n n Z.M.c g m k k , - k k k j m k m K ^.#XC j > j m n n 6 . . l m a.~.k m k ",
"m l m m z n m m m z z m { $X..d l n z n m m m 7 7 m n z V.q.1 6 n m n 6 3 n m m m m m z l Q.OX) h 6 z m m m z l & 3 z y.!.m n 7 ",
"l 7 m m m n m m m m m m { $X..j 7 z m n m m m l m 7 3 z x.0.g z z m m n n m m m m n n m n V..XC g z n m m l n N l 6 d i.~.z n l ",
"7 4 6 n n n m m m m m k [ $X~ h 7 1 z l m m m m m 7 6 < -.*.j z n m m m n m m m m m n n m V.[.V m m m m n , z n l 7 < ,.!.k m n ",
"1 1 2 k 1 1 h 2 g k k k | $XE h > ; 7 ; - h k d 2 2 2 1 k.7.f n k k k k h j m k k f n h > c.d.V m k m k m k j < 1 1 O y.!.m k ; ",
"2.3... ./ ~  .W o.$.3.@.A.*Xs.} ( i i / /  ...@. .( ..| ^.V...@.8.9.0.e.e.s.s.s.c.c.c.N.M.[.OX[.S.e.e.c.s.a.g.:.%.6.a H. X0.3.X.",
".X/.!.Q.V.s.0.w.z.B.c.c.B.XX*X%X+X@X%X=X%X#X$X XU.{.*X%X@X+X$X=X=X$X}.`.Y.[.[.[.K.~.^._._.(.(._.%X'.V.A.A.A.A.c.5.c.V.Q.Q.D.D.`.",
"..N j 1 z n l < 1 j 2 z - S c.E.q q W c.7.P ` L 8 K 3...} ! | a.%Xx.c M = c B B l n N m N N m V (...j n k m m k k k m k n 1 g  .",
"] k n 4 l m m l g n z m 6 > ..R.% o 7 l l 7 1 2 z h h j m j f _ $Xq.h z > l ; z m m m n m m m N ^.@.N m m m m m m m m z 7 z g } ",
"..m m M l n m m m m n m m h ( `.8 l ; 4 6 l - 7 n n z m m m m _ #Xq.h 7 l l 7 n m m m m m m m m V.} B z m m m m m m m n h C m I ",
"3.k m k n m m m m m m m m n ( /.V l & 1 n V 7 l l z z m m m m _ $Xs.k m l n m m m m m m m m m N A.U h m n m N m n n n k k m n K ",
"a.g , , n m h k n f n j n d W P.l l z V m n l g ; 7 n n n l z _ $Xa.k m 2 : j n k f m f m k k m V.H j k n N V k n 2 2 k k k k ) ",
"`.%.=.6.e.e.r.<.d.d.f.y.l.V.`.@XS.A.(.[.~.F.V.B.B.S.F.Q.~.H.K._.=X~.@...2.%.3.3.5.0.0.e.a.a.d.d.].Q.0.e.0.8.9.9.e.$. .@.8...8.d.",
"/.(./.~./.'..X$X/.S.n.v.,.<.x.B.C.l.j.v.Z.!.+X/.Q.Q.Q.B.B.S.V.D.z.M.Q.Q.Q.^.[.OX*X{.^.!.Q.V.V.V.d.N.A.D.J.~./..X*X'.(.(.'.'.[.'.",
"M M m z z M ' '.) l 6 > ; 6 > n - O ; - l N V.` f j d n l z n z g s m m N z v ` `.' m m k k N m m m m _ m N m a.`.B B C N V C C ",
"m h m n h 1 w R.I n n m n 6 6 7 - 3 & 6 z n c.H n n n m n * 3 n m l z m n n 7 K `.` k m m m N m m m m N m m m e.[.V m m m m m m ",
"M 1 M m z 6 9 U.I < 4 m z z 7 l 4 4 & l m z l.t z n n m l , 7 z m z 7 z : 7 m ) .X3.m m m m m m m N N m m m m 0.}.A m m m m m m ",
"k n m m z l b ~.` 1 l m n n m m m m 2 z z 6 m.U s z z m n l 7 z m m m n z z m )  X..m n l z m m m m m m n n k 5.(.N m m z , l n ",
"g $ g h < 1 c U.G O h k h h s h k l n g ; 4 v.y - z d m f m k m m k k j j j k ) }.` f k 1 - j k k k m m k k k 0.(.N k k 1 1 6 g ",
"^ R ^ P R R / W.b.=.0.9.0.0.;.4.7.#.4.%.2.Z.@XT.n.r.o.} @.| | ....{ ` ..0.d.9.9.#Xc.8.3.+.X.6.e.9.3.3...| ..e.~..X9.0.8. .( 7.@.",
"@XR.'.(.U.U.H.L.R.~.~.D./.J.E.=XOX'.}.=X=X$X|.{. X.X}.}.}.[.}.}.#X%X#X$X$X#X.X[.'.I.Y. X X X.X.X*X$X'./.'._.(.'.}.}.}.`.`.`. X$X",
"'.J V V B N 7 8 7 N n z N z ~ +X^ C K N.f.P = = B V C V V ) ) V s.$X*.` _ ) C B V B v C A ) ) C 0.0.N N C C C C B C C c 7 9 K e.",
"`.v n m m m m m m m z z k h P  XG j j M n j 4 3 z n m z k m m k { ].b f m m j f m n n z m s h 6 1 n m N C k k k k m k n x * , ^ ",
"H.5 n m n m m m m m n m m n I oX` j 7 g g z 6 6 4 6 m m m m m h U `.3._ n n n C m n z n m 6 * 7 e J m m m m k k m m m m 6 4 7 } ",
"H.x m m n z n N m M m n l g I {.` j Z { V m m m n B m m m m m k +.@X%X[.V.@.z m m m m n 7 < n m m z m m C m C k m m m n c l z { ",
"oX) k m j n n k k k k j - # ^ oX` k L R.8.k h j n n m m m k k k @.[./.~..X[.K j h k m k j s n m V N k k f k k k m m k l g j m { ",
"&Xa._ P G r P _ ` [ [ } i y 6.OX| C 2.@Xg.J Z _ _ _ K ' ` { { } s.}./.9.Q.*XV.] { ......@.8.8.0.R.(.a.5.9.s.9.9.{ ] ^ [ ] ] ..s.",
"R.I./.)./.{.@X#XU.J./.(.Y.)./.I.M.B.H.`.D.V.Q./.OX#X X XoXOXoX#X X|.#X}.^._.'.}.$X.X~.F.m.D.V.d.c.(.}.}.}.}..X%XOX_.(.^.~.~.(._.",
"c 7 V V V I r.oXu 6 N c 7 V M 3 = 8 8 c N N C Z e.'.{ ] ` ` ` _ _ Z _ ) C V V ] #Xe.N n l z n m m N C V C C ) s.Q.C N m N m C C ",
"n n m m k g e oXR 1 m n l l z l z l n z k n n j P D.N k m m m k B m m m m m m C '.8.f m z 7 l n * l m m m m d 8.Q.f f f C k f k ",
"n m n l m 2 r  X` j m m l 6 n m m n l m n n m n b B.C m m m m n m m m m m V C C ].@.n l n n l l 6 4 n l m m m 8.Q.f k C f k f C ",
"m m n z m h H }.` k n g n n z n m m n m n n l h ` K.B g m m m m n h m m m m m 9 {.+.m m m z * 7 n m m n f k k 0.Q.m m m k m m m ",
"k h 2 j k m A ].I k m h n n g j m k m k z m g 1 +.^.M 2 n m m m m m m m m j 4 9  Xa > m m ; . > m m k n f C f 9.Q.k k k k k k m ",
"3.$.%.( 0.D.A.oXe.{ { ' { ` ` _ ` ` I L _ _ _ L J.oXI I _ ) ) _ _ _ ' } { [ ! O.#XL.a @...u u Y ` T I ' ] ` _ d..Xa.@.8.8.8.8.@.",
"&X'.~.~.~.~.!.A.A.A.S.A.A.D.(.#X~.V.V.V.A.D.~.~.`.[./.`.'.]. Xd.w.p.c.s.w.D.[.[.}.}._.^.(._.{. X+X{././.(.(.~.Q.(.(.^.^.^.^.~.^."
};
