/* XPM */
static char *_aede23088d94993d01601b886e5aff3hk4MZGoLlGDL1QBW[] = {
/* columns rows colors chars-per-pixel */
"32 32 2 1 ",
"  c black",
". c white",
/* pixels */
"                                ",
"                                ",
"                                ",
"                                ",
"                                ",
"  .......              .......  ",
"    ...                  ...    ",
"    ...                  ...    ",
"    ...                  ...    ",
"     ...                ...     ",
"     ...                ...     ",
"      ..                ..      ",
"      ..                ..      ",
"      ...              ...      ",
"       ..              ..       ",
"       ..              ..       ",
"       ..              ..       ",
"        ..            ..        ",
"        ..            ..        ",
"        ..     ..     ..        ",
"         ..    ..    ..         ",
"         ..    ..    ..         ",
"          .   ....   .          ",
"          ..  .  .  ..          ",
"           . ..  .. .           ",
"           . .    . .           ",
"           ...    ...           ",
"            ..    ..            ",
"            .      .            ",
"                                ",
"                                ",
"                                "
};
